<?xml version="1.0" encoding="UTF-8"?>
<svg id="Layer_1" data-name="Layer 1" xmlns="http://www.w3.org/2000/svg" viewBox="0 0 1920 1820">
  <defs>
    <style>
      .cls-1 {
        fill: #f5eb10;
      }

      .cls-1, .cls-2, .cls-3, .cls-4, .cls-5, .cls-6 {
        stroke-width: 0px;
      }

      .cls-2 {
        fill: #12133d;
      }

      .cls-3 {
        fill: #e11877;
      }

      .cls-4 {
        fill: #fff;
      }

      .cls-5 {
        fill: #30c2e8;
      }

      .cls-6 {
        fill: #4162ac;
      }
    </style>
  </defs>
  <rect class="cls-2" width="1920" height="1820"/>
  <polygon class="cls-5" points="515.56 710.14 514.39 710.15 512.7 710.14 414.93 710.14 414.93 861.07 465.24 861.07 465.24 760.45 512.7 760.45 515.56 760.45 515.56 760.45 666.49 760.45 666.49 710.14 515.56 710.14"/>
  <polygon class="cls-3" points="515.56 861.07 616.17 861.07 616.17 911.38 515.56 911.38 515.56 911.38 512.71 911.38 414.93 911.38 414.93 961.69 666.49 961.69 666.49 810.76 515.56 810.76 515.56 861.07"/>
  <polygon class="cls-6" points="414.93 1109.86 437.8 1109.86 437.8 1018.39 506.41 1018.39 506.41 1041.26 460.67 1041.26 460.67 1064.12 529.27 1064.12 529.27 995.52 414.93 995.52 414.93 1109.86"/>
  <rect class="cls-5" x="597.88" y="1041.26" width="68.61" height="22.87"/>
  <polygon class="cls-5" points="490.96 1086.99 464.56 1086.99 471.16 1098.43 477.76 1109.86 504.16 1109.86 497.56 1098.43 490.96 1086.99"/>
  <polygon class="cls-1" points="597.88 1018.39 597.88 1018.39 596.58 1018.39 575.01 1018.39 575.01 1086.99 596.59 1086.99 597.88 1086.99 597.88 1086.99 666.48 1086.99 666.48 1109.86 597.88 1109.86 597.88 1109.86 596.59 1109.86 552.14 1109.86 552.14 995.52 596.58 995.52 597.25 995.53 597.88 995.52 666.48 995.52 666.48 1018.39 597.88 1018.39"/>
  <path class="cls-4" d="M799.72,916.86c0,10.47-5.2,15.71-15.6,15.71h-51.75c-10.33,0-15.49-5.24-15.49-15.71v-40.98h25.71v35.05h31.42v-33.73l-51.53-48.78c-3.74-3.59-5.6-8.17-5.6-13.73v-38.24c0-10.55,5.16-15.82,15.49-15.82h51.75c10.4,0,15.6,5.2,15.6,15.6v38.46h-25.71v-32.41h-31.42v31.09l51.53,48.56c3.74,3.52,5.6,8.17,5.6,13.96v40.98Z"/>
  <path class="cls-4" d="M898.67,932.57h-71.31v-171.95h70.65v22.74h-44.94v50.21h38.68v22.3h-38.68v53.95h45.6v22.74Z"/>
  <path class="cls-4" d="M1011.46,932.57h-26.81l-28.35-79.88v-15.49h25.27v-54.5h-32.41v149.87h-25.71v-171.95h68.23c10.33,0,15.49,5.27,15.49,15.82v62.52c0,7.25-2.46,11.94-7.36,14.06-2.64,1.1-8.2,1.65-16.7,1.65l28.35,77.9Z"/>
  <path class="cls-4" d="M1121.06,916.86c0,10.47-5.2,15.71-15.6,15.71h-55.82c-10.18,0-15.27-5.24-15.27-15.71v-140.42c0-10.55,5.09-15.82,15.27-15.82h55.82c10.4,0,15.6,5.27,15.6,15.82v140.42ZM1095.35,910.48v-127.78h-35.27v127.78h35.27Z"/>
  <path class="cls-4" d="M1234.62,932.57h-27.8l-18.9-60.54-19.01,60.54h-27.36v-.88l32.08-87.13c-20.14-55.67-30.18-83.65-30.11-83.94h27.47l17.14,56.04,17.25-56.04h27.25v.99l-30.11,82.29,32.08,88.67Z"/>
  <path class="cls-4" d="M1281.26,932.57h-25.71v-171.95h25.71v171.95Z"/>
  <path class="cls-4" d="M1395.26,900.15c0,10.11-3,18.04-9.01,23.79-6.01,5.75-14.1,8.62-24.28,8.62h-52.41v-171.95h52.41c10.18,0,18.28,2.91,24.28,8.73,6,5.82,9.01,13.79,9.01,23.9v106.91ZM1369.44,895.87v-98.78c0-9.6-5.02-14.39-15.05-14.39h-19.12v127.78h18.46c10.47,0,15.71-4.87,15.71-14.61Z"/>
  <path class="cls-4" d="M1493.65,932.57h-71.31v-171.95h70.65v22.74h-44.94v50.21h38.68v22.3h-38.68v53.95h45.6v22.74Z"/>
  <path class="cls-4" d="M753.79,1063.83h-37.65v-114.63h37.21v9.01h-27.03v42.78h24.61v9.16h-24.61v44.68h27.47v9.01Z"/>
  <path class="cls-4" d="M821.74,1063.83h-7.03l-30.62-84.31v84.31h-9.6v-114.63h7.62l30.03,82.85v-82.85h9.6v114.63Z"/>
  <path class="cls-4" d="M884.33,958.2h-17.73v105.62h-10.18v-105.62h-17.87v-9.01h45.78v9.01Z"/>
  <path class="cls-4" d="M938.72,1063.83h-37.65v-114.63h37.21v9.01h-27.03v42.78h24.61v9.16h-24.61v44.68h27.47v9.01Z"/>
  <path class="cls-4" d="M1008.2,1063.83h-10.69l-21.32-61.38,1.39-2.05h18.17v-42.19h-26.15v105.62h-10.18v-114.63h38.38c2.39,0,4.35.76,5.86,2.27,1.51,1.51,2.27,3.47,2.27,5.86v43.51c0,5.52-3.71,8.28-11.13,8.28-.73,0-1.81-.04-3.22-.11-1.42-.07-2.44-.11-3.08-.11,6.59,18.26,13.16,36.58,19.7,54.94Z"/>
  <path class="cls-4" d="M1067.72,958.2h-17.73v105.62h-10.18v-105.62h-17.87v-9.01h45.78v9.01Z"/>
  <path class="cls-4" d="M1130.68,1063.83h-10.11l-4.03-25.49h-22.78l-4.03,25.49h-9.82v-.29l20.44-114.63h10.04l20.29,114.93ZM1115.22,1029.33l-10.04-62.12-10.11,62.12h20.14Z"/>
  <path class="cls-4" d="M1160.01,1063.83h-10.18v-114.63h10.18v114.63Z"/>
  <path class="cls-4" d="M1231.18,1063.83h-7.03l-30.62-84.31v84.31h-9.6v-114.63h7.62l30.03,82.85v-82.85h9.6v114.63Z"/>
  <path class="cls-4" d="M1310.99,1063.83h-9.6v-72.59c0-1.03.34-4.03,1.03-9.01l-18.75,70.83h-2.05l-18.75-70.83c.68,5.03,1.03,8.04,1.03,9.01v72.59h-9.6v-114.63h9.45l18.6,74.57c.1.39.2,1.49.29,3.3,0-.73.1-1.83.29-3.3l18.61-74.57h9.45v114.63Z"/>
  <path class="cls-4" d="M1371.75,1063.83h-37.65v-114.63h37.21v9.01h-27.03v42.78h24.61v9.16h-24.61v44.68h27.47v9.01Z"/>
  <path class="cls-4" d="M1439.69,1063.83h-7.03l-30.62-84.31v84.31h-9.6v-114.63h7.62l30.03,82.85v-82.85h9.6v114.63Z"/>
  <path class="cls-4" d="M1502.28,958.2h-17.73v105.62h-10.18v-105.62h-17.87v-9.01h45.78v9.01Z"/>
</svg>